<svg width="78" height="32" viewBox="0 0 78 32" fill="none" xmlns="http://www.w3.org/2000/svg">
<path d="M16.0194 31.6457V23.1665H7.74747V25.6465H13.3256C13.1826 27.0872 11.8953 29.4019 8.48646 29.4019C5.57818 29.4019 2.90828 27.347 2.90828 23.2609C2.90828 19.104 5.76888 17.1672 8.5103 17.1672C11.204 17.1672 12.8727 18.7733 13.4448 20.6628L16.1386 19.6472C15.2327 16.8838 12.6105 14.5455 8.5103 14.5455C4.12404 14.5455 0 17.7577 0 23.2609C0 28.7878 3.90949 32 8.31959 32C11.0133 32 12.7535 30.7482 13.4925 29.52L13.7071 31.6457H16.0194Z" fill="black"/>
<path d="M18.5323 28.528C18.5323 30.3467 20.0341 32 22.4656 32C24.3488 32 25.4931 31.0553 26.0414 30.1813C26.0414 31.1025 26.1367 31.5749 26.1606 31.6457H28.7351C28.7113 31.5276 28.5921 30.8427 28.5921 29.8034V24.0876C28.5921 21.7965 27.2333 19.7889 23.6575 19.7889C20.7969 19.7889 18.9852 21.5604 18.7707 23.5444L21.2975 24.1112C21.4167 22.9539 22.2272 22.0327 23.6814 22.0327C25.207 22.0327 25.8745 22.8122 25.8745 23.7806C25.8745 24.1821 25.6838 24.5127 25.0163 24.6072L22.0365 25.056C20.0579 25.3394 18.5323 26.4731 18.5323 28.528ZM22.9901 29.8507C21.8935 29.8507 21.2975 29.1421 21.2975 28.3627C21.2975 27.4179 21.9888 26.9455 22.847 26.8038L25.8745 26.355V26.8747C25.8745 29.1185 24.5395 29.8507 22.9901 29.8507Z" fill="black"/>
<path d="M34.6286 31.6457V30.1105C35.296 31.2206 36.5595 31.9292 38.2043 31.9292C41.5894 31.9292 43.6633 29.3074 43.6633 25.8354C43.6633 22.4579 41.7801 19.8362 38.2997 19.8362C36.5118 19.8362 35.1769 20.6628 34.6524 21.5604V14.5455H31.9348V31.6457H34.6286ZM40.8742 25.859C40.8742 28.1265 39.5631 29.4964 37.7514 29.4964C35.9874 29.4964 34.6286 28.1265 34.6286 25.859C34.6286 23.568 35.9874 22.2689 37.7514 22.2689C39.587 22.2689 40.8742 23.568 40.8742 25.859Z" fill="black"/>
<path d="M53.8086 30.3703C53.8086 30.8427 53.8563 31.3859 53.9039 31.6457H56.55C56.5023 31.2206 56.4308 30.4884 56.4308 29.5436V20.1432H53.6656V26.9455C53.6656 28.4571 52.8312 29.52 51.234 29.52C49.5654 29.52 48.8979 28.3154 48.8979 26.8983V20.1432H46.1326V27.3943C46.1326 29.9452 47.7536 31.9764 50.5189 31.9764C51.8777 31.9764 53.2365 31.4095 53.8086 30.3703Z" fill="black"/>
<path d="M61.9125 32C65.0943 32 68.2047 31.0616 70.8502 29.3035C73.4958 27.5454 75.5578 25.0466 76.7754 22.1229C77.993 19.1993 78.3116 15.9823 77.6909 12.8786C77.0702 9.77487 75.538 6.92394 73.2881 4.6863C71.0382 2.44866 68.1717 0.924807 65.051 0.307443C61.9304 -0.309921 58.6957 0.0069319 55.7561 1.21794C52.8165 2.42894 50.304 4.4797 48.5362 7.11088C46.7685 9.74207 45.825 12.8355 45.825 16H49.8086C49.8086 13.6191 50.5185 11.2916 51.8485 9.312C53.1785 7.33235 55.0688 5.78939 57.2805 4.87826C59.4922 3.96713 61.9259 3.72873 64.2739 4.19322C66.6218 4.65772 68.7785 5.80423 70.4713 7.48779C72.164 9.17135 73.3168 11.3163 73.7839 13.6515C74.2509 15.9866 74.0112 18.4071 73.0951 20.6068C72.179 22.8065 70.6276 24.6865 68.6371 26.0093C66.6466 27.3321 64.3064 28.0381 61.9125 28.0381V32Z" fill="url(#paint0_angular)"/>
<defs>
<radialGradient id="paint0_angular" cx="0" cy="0" r="1" gradientUnits="userSpaceOnUse" gradientTransform="translate(61.9125 16) rotate(90) scale(16 16.0875)">
<stop stop-color="#006BB8"/>
<stop offset="1" stop-color="#34AAFF"/>
</radialGradient>
</defs>
</svg>
